# xmcd CD database file
#
# Track frame offsets:
#	150
#	16811
#	28962
#	45245
#	56227
#	68980
#	85220
#	98347
#	110510
#	120851
#	135724
#	152710
#	170608
#	188946
#	205991
#	213748
#
# Disc length: 3038 seconds
#
# Revision: 3
# Processed by: cddbd v1.5.2PL0 Copyright (c) Steve Scherf et al.
# Submitted via: CDex 1.51
#
DISCID=db0bdc10
DTITLE=Various Artist - Country Christrmas Songs
DYEAR=2002
DGENRE=Country
TTITLE0=Johnny Cash - Christmas as I knew it
TTITLE1=Tammy Wynette - White Christmas
TTITLE2=B.J. Thomas - The First Noel
TTITLE3=Willie Nelson - Pretty Paper
TTITLE4=Chet Atkins - East Tennessee Christmas
TTITLE5=Alabama - Christmas in Dixie
TTITLE6=Alan Jackson - Honky Tonk Christmas
TTITLE7=Marty Robbins - Merry Christmas to you from me
TTITLE8=Merle Haggard - Santa Claus is coming to town
TTITLE9=Mickey Gilley - I'll be home for christmas
TTITLE10=Clint Black - Under the Mistletoe
TTITLE11=Rosanne Cash - It come upon a midnight clear
TTITLE12=Charles Daniels - My christmas love song to you
TTITLE13=Louise Mandrell - Christmas is just a song this year
TTITLE14=Ray Price - Jingle Bells
TTITLE15=Gene Autry - Rudolph the Red-Nosed Rendeer
EXTD=YEAR: 2002
EXTT0=
EXTT1=
EXTT2=
EXTT3=
EXTT4=
EXTT5=
EXTT6=
EXTT7=
EXTT8=
EXTT9=
EXTT10=
EXTT11=
EXTT12=
EXTT13=
EXTT14=
EXTT15=
PLAYORDER=
